/* XPM */
static char *_a025a6b662c401ff6161f389f5734f7giUZ5QYoCFTkuyyF[] = {
/* columns rows colors chars-per-pixel */
"120 120 42 1 ",
"  c None",
". c gray20",
"X c #343434",
"o c #353535",
"O c gray21",
"+ c #373737",
"@ c gray22",
"# c #393939",
"$ c #3A3A3A",
"% c gray23",
"& c #3C3C3C",
"* c gray24",
"= c #3E3E3E",
"- c #3F3F3F",
"; c gray25",
": c #414141",
"> c gray26",
", c #434343",
"< c #444444",
"1 c gray27",
"2 c #484848",
"3 c gray32",
"4 c #535353",
"5 c gray36",
"6 c #5D5D5D",
"7 c #676767",
"8 c #717171",
"9 c #7B7B7B",
"0 c #7C7C7C",
"q c gray52",
"w c #868686",
"e c #909090",
"r c gray60",
"t c #9A9A9A",
"y c #A4A4A4",
"u c #AEAEAE",
"i c gray72",
"p c #B9B9B9",
"a c gray76",
"s c #C3C3C3",
"d c #CDCDCD",
"f c #D7D7D7",
/* pixels */
"                                                    oo...o.o.o...o.o                                                    ",
"                                               o.o.o.oo.o.o.o..oo.o..oooo                                               ",
"                                           .o.o.o.o.o.o..o.oo.o..o.oo.o.o.o..                                           ",
"                                        o.oo.o.o.o.o.o.o9u*o.q9oo.o..o.o.o.oo.oo                                        ",
"                                     .o.o.o.o.o.o.o.o.o.ufqoosuo.o.o.o.oo.o.o.o..o.                                     ",
"                                   oo..o.o.o.o.o.o.o.o.oufd2.su.o.o.o.o..o.o.o.oo.ooo                                   ",
"                                 oo.o.o.o.o.o.o.o.o.o.o.ussrosuo.o.o.o.oo.o.o.o..oo.o.o                                 ",
"                               o.o.o.o.o.o.o.o.o.o.o.o.ous5f5su.o.o.o.o..o.o.o.oo..o.o.oo                               ",
"                             o.oo.o.o.o.o.o.o.o..o.o.o.ous.uusuo.o.o.o.o.o.o.o.o.o.o.o.o.o.                             ",
"                            o.o..o.o.o.o.o.o.o.oo.o.o.o.uso5ffu.o.o.o.o.o.o.o.o.o.o.o.o.o..o                            ",
"                          .o.o.oo.o.o.o.o.o.o.o..o.o.o.ous.oufuo.o.o.o.o.o.o.o.o.o.o.o.oo.o..o                          ",
"                         oo.o.o..o.o.o.o.o.o.o.oo.o.o.o.yio.1sy.o.o.o.o.o.o.o.o.o.o.o.o..o.oo.o                         ",
"                       .o.o..o.oo.o.o.o.o.o.o.o..o.o.o.o.o.oo.o..o.o.o.o.o.o.o.o.o.o.o.oo.o.o.o.o                       ",
"                      oo.o.oo.o..o.o.o.o.o.o.o.oo.o.ooo.o.o.oo.oo.o.o.o.o.o.o.o.o.o.o.o..o.o.o.o.o                      ",
"                     oo.o.o..o.oo.o.o.o.o.o.o.o.o..ooooo.o.oooo..ooo.o.o.o.o.o.o.o.o.o.oo.o.o.o.o.o                     ",
"                    .o.o.o.oo.o..o.o.o.o.o.o.o.o.ooo#**:1:11111:::*#o.o.o.o.o.o.o.o.o.o..o.o.o.o.o.o                    ",
"                   o.o.o.o.o.o.o.o.o.o.o.o.ooooo*:11111111111111111111:*#o.o.o.o.o.o.o.oo.o.o.o.o..o.                   ",
"                  o.o.o.o.o.o.o.o.o.o.o.o.ooo*1111111111111111111111111111:oooo.o.o.o.o..o.o.o.o.oo.o.                  ",
"                 o.o.o.o.o.o.o.o.o.o.ooo.o*1111111111111111111111111111111111#oo.o.o.o.oo.o.o.o.ooooo.o                 ",
"                o.oo::#.o.o.o.o.o.o.o.oo*11111111111111111111111111111111111111*o.o.o.o..o.o.o.o.#::oo.o                ",
"               .o.o::1:#oo.o.o.o.o.ooo*:11111111111111111111111111111111111111111*oo.o.oo.o.o.oo#111:o.o.               ",
"              oo.oo:1111#oo.o.o.o.o.*:111111111111111111111111111111111111111111111#ooo..o.o.o.#11:1:.o.oo              ",
"             oo.o.o#:1111#.o.o.oooo:111111111111111111111111111111111111111111111111:oo.o.o.o.#11:1:#o.oo.o             ",
"            .o.o.ooo#11:1:#.o.oo.#1111111111111111111111111111111111111111111111111111#o.o.o.#11111#..o..o.o            ",
"            o.o.o.o..#11:1*oo.oo*111111111111111111111111111111111111111111111111111111*o.o.o*:111#oo.o.o.o.            ",
"           o.o.o.o.oo.#111#.ooo:111111111111111111111111111111111111111111111111111111111o.oo#11:#oo.o.o.o.oo           ",
"          ooo.o.o.o..o.#*#oooo:1111111111111111111111111111111111111111111111111111111111:o.oo#*#.o.o.o.o.o.o.          ",
"          o..o.o.o.oo.ooo.o.o11111111111111111111111111111111111111111111111111111111111111#o.o..o.o.o.o.o.o.o          ",
"         oo.o.o.o.o.o.o.ooo#1111111111111111111111111111111111111111111111111111111111111111ooo.o.o.o.o.o.o.o.o         ",
"        ...o.o.o.o.o.o.o.oo:11111111111111111111111111111111111111111111111111111111111111111o.o.o.o.o.o.o.o.o.o        ",
"        o.o.o.o.o.o.o.o.oo1111111111111111111111111111111111111111111111111111111111111111111:ooo.o.o.o.o.o.o.o.        ",
"       o.o.o.o.o.o.o.o.o.:111111111111111111111111111111111111111111111111111111111111111111111o.o.o.o.o.o.o.o.oo       ",
"       oo.o.o.o.o.o.o.oo*1111111111111111111111111111111111111111111111111111111111111111111111*o.o.o.o..o.o.o.oo       ",
"      o..o.o.o.o.o.o.oo#111111111111111111111111111111111111111111111111111111111111111111111111#o.o.o.oo.o.o.o..o      ",
"      .oo.o.o.o.o.o.o.o11111111111111111111111111111111111111111111111111111111111111111111111111oo.o.o..o.o.o.oo.      ",
"     oo..o.o.o.o.o.o.o:11111111111111111111111111111111111111111111111111111111111111111111111111:.o.o.oo.o.o.o..oo     ",
"     o.oo.o.o.o.o.o.o#1111111111111111111111111111111111111111111111111111111111111111111111111111*.o.o..o.o.o.oo.o     ",
"    .oo..o.o.o.o.o.oo111111111111111111111111111111111111111111111111111111111111111111111111111111o.o.oo.o.o.o..oo.    ",
"    o.o.o.o.o.o.o.o.*111111111111111111111111111111111111111111111111111111111111111111111111111111*o..o.o.o.o.o.o.o    ",
"    .o.o.o.o.o.o.ooo1111111111111111111111111111111111111111111111111111111111111111111111111111111:o.o.o.o.o.o.o.o.    ",
"   o.o.oo.o.o.o.o.o*11111111111111111111111111111111111111111111111111111111111111111111111111111111*oo..o.o.o.o.o.o.   ",
"   oo.o..o.o.o.o.o#1111111111111111111111111111111111111111111111111111111111111111111111111111111111o.oo.o.o.o.o.o.o   ",
"   ..o.oo.o.o.o.o.#1111111111111111111111111111111111111111111111111111111111111111111111111111111111*o..o.o.o.o.o.oo   ",
"  .oo.o..o.o.o.o.o:11111111111111111111111111111111111111111111111111111111111111111111111111111111111.oo.o.o.o.o.o..o  ",
"  .o.o.oo.o.o.o.o#111111111111111111111111111111111111111111111111111111111111111111111111111111111111oo.o.o.o.o.o.oo.  ",
"  o.o.o..o.o.o.oo*111111111111111111111111111111111111111111111111111111111111111111111111111111111111*oo.o.o.o.o.o..o  ",
"  .o.o.oo.o.o.o.o:1111111111111111111111111111111111111111111111111111111111111111111111111111111111111o.o.o.o.o.o.o.o  ",
" .o.o.o..o.o.o.o#11111111111111111111111111111111111111111111111111111111111111111111111111111111111111oo.o.o.o.o.o.o.o ",
" o.o.o.o.o.o.o.o*11111111111111111111111111111111111111111111111111111111111111111111111111111111111111*ooo.o.o..o.o.oo ",
" oo.o.o.o.o.o.o.:11111111111111111111111111111111111111111111111111111111111111111111111111111111111111:o..o.o.oo.o.o.o ",
" o.o.o.o.o.oo..o1111111111111111111111111111111111111111111111111111111111111111111111111111111111111111.oo.o.o..o.o.o. ",
" .o.o.o.o.o..ooo1111111111111111111111111111111111111111111111111111111111111111111111111111111111111111oo.o.o.oo.o.o.o ",
"o..o.o.o.o.oo.o#1111111111111111111111111111111111111111111111111111111111111111111111111111111111111111#o.oo.o..o.o.o..",
".oo.o.o.o.o..oo#1111111111111111111111111111111111111111111111111111111111111111111111111111111111111111*.o..o.oo.o.o.oo",
".o.o.o.o.o.o.oo:1111111111111111111111111111111111111111111111111111111111111111111111111111111111111111*o.o.oo..o.o.o.o",
"o.o.o.o.o.o.ooo*1111111111111111111111111111111111111111111111111111111111111111111111111111111111111111:ooo55.oo.o.o.oo",
"..oo.ooo.oo.o.o:11111111111111111111111111111111111111111111111111111111111111111111111111111111111111111.o.yffpe83o.o.o",
"oo.*2oooo..5.oo11111111111111111111111111111111111111111111111111111111111111111111111111111111111111111:o.o28eupffdr.o.",
".o.uro5d.o7f.o.111111111111111111111111111111111111111111111111111111111111111111111111111111111111111111oo.ooo179udfo.o",
"o.our.5fo.8fo.o111111111111111111111111111111111111111111111111111111111111111111111111111111111111111111o.o9pdffsye8oo.",
".o.uro5foo8f.o.111111111111111111111111111111111111111111111111111111111111111111111111111111111111111111o.oufpq5oo..o.o",
"o.oupqrfqqyfo.o111111111111111111111111111111111111111111111111111111111111111111111111111111111111111111.o.7yidffpy8.o.",
"o..yffffffffo..11111111111111111111111111111111111111111111111111111111111111111111111111111111111111111:o.oo..o28udfo.o",
".oo*2222212*.oo:1111111111111111111111111111111111111111111111111111111111111111111111111111111111111111:oo.3eysfffsq.oo",
"..o.o.o..o.o.oo:1111111111111111111111111111111111111111111111111111111111111111111111111111111111111111:.o.ufdy97*oo.o.",
".o.o.o.oo.o.o.o*1111111111111111111111111111111111111111111111111111111111111111111111111111111111111111:o.o22o..o.o.o.o",
"..o.o.o..o.o.o.*1111111111111111111111111111111111111111111111111111111111111111111111111111111111111111*.o.o.o.o.o.o.o.",
".o.o.o.oo.o.o.o#1111111111111111111111111111111111111111111111111111111111111111111111111111111111111111#o.o.o.o.o.o.o.o",
" .o.o.o..o.o.ooo1111111111111111111111111111111111111111111111111111111111111111111111111111111111111111ooo.o.o.o.o.o.o ",
" o.o.o.oo.o.o.oo1111111111111111111111111111111111111111111111111111111111111111111111111111111111111111.o.o.o.o.o.o.oo ",
" oo.o.o..o.o.oo.*11111111111111111111111111111111111111111111111111111111111111111111111111111111111111:o.o.o.o.o.o.o.. ",
" ..o.o.oo.o.o..o*11111111111111111111111111111111111111111111111111111111111111111111111111111111111111*.o.o.o.o.o.o.o. ",
" .o.o.o.o.o.o.o.#11111111111111111111111111111111111111111111111111111111111111111111111111111111111111#.o.o.o.oo.o.o.o ",
"  .o.o.o.o.o.o.o.1111111111111111111111111111111111111111111111111111111111111111111111111111111111111:.o.o.o.o..o.o.o  ",
"  o.o.o.o.o.o.o.o*111111111111111111111111111111111111111111111111111111111111111111111111111111111111:o.o.o.o.oo.o.o.  ",
"  .o.o.o.o.o.o.ooo111111111111111111111111111111111111111111111111111111111111111111111111111111111111#.o.o.o.o..o.o.o  ",
"  o.o.o.o.o.o.o.oo:1111111111111111111111111111111111111111111111111111111111111111111111111111111111:.o.o.o.o.oo.o.o.  ",
"   o.o.o.o.o.o.oo.*1111111111111111111111111111111111111111111111111111111111111111111111111111111111#o.o.o.o.o..o.oo   ",
"   .o.o.o.o.o.o.o.o1111111111111111111111111111111111111111111111111111111111111111111111111111111111o.o.o.o.o.oo.o..   ",
"   o.o.o.o.o.o.o.o.*11111111111111111111111111111111111111111111111111111111111111111111111111111111*oo.o.o.o.o..o.oo   ",
"    .o.oo.o.o.o.o.oo11111111111111111111111111111111111111111111111111111111111111111111111111111111oo.o.o.o.o.oo.o.    ",
"    o.o..o.o.o.o.oo.*111111111111111111111111111111111111111111111111111111111111111111111111111111*ooo.o.o.o.o..o.o    ",
"    ...oo.o.o.o..o.oo111111111111111111111111111111111111111111111111111111111111111111111111111111o.o.o.o.o.o.oo...    ",
"     oo..o.o.o.oo.o.o#1111111111111111111111111111111111111111111111111111111111111111111111111111#.o.o.o.o.o.o..oo     ",
"     o.oo.o.o.o..o.o.o:11111111111111111111111111111111111111111111111111111111111111111111111111:ooo.o..o.o.o.oo.o     ",
"      o..o.o.o.oo.o.o.o11111111111111111111111111111111111111111111111111111111111111111111111111oo..o.oo.o.o.o..o      ",
"      ..o.o.o.o..o.o.o.#111111111111111111111111111111111111111111111111111111111111111111111111#oo.o.o..o.o.o.oo.      ",
"       o.o.o.o.oo.o.o.o.*1111111111111111111111111111111111111111111111111111111111111111111111*.o.o.o.oo.o.o.o..       ",
"       oo.o.o.o..o.o.o.oo:11111111111111111111111111111111111111111111111111111111111111111111:oo.o.o.o..o.o.o.o.       ",
"        .o.o.o.oo.o.o.o.oo:111111111111111111111111111111111111111111111111111111111111111111:oo.o.o.o.oo.o.o.o.        ",
"        o.o.o.o..o.o.o.oo.o11111111111111111111111111111111111111111111111111111111111111111:oooo.o.o.o..o.o.oo.        ",
"         o.o.o.oo.o.o.oo.ooo1111111111111111111111111111111111111111111111111111111111111111#o.o.o.o.o.oo.o.o..         ",
"          o..o.o.o.o.o.o.o.oo11111111111111111111111111111111111111111111111111111111111111oo.o.ooo..o.o.o.o.o.         ",
"          .oo.o.o.o.o.oo*#oooo:1111111111111111111111111111111111111111111111111111111111:o..o#*#o.oo.o.o.o.o.          ",
"           o.o.o.o.o.o#111#oo.o111111111111111111111111111111111111111111111111111111111:#.oo#11:#.o.o.o.o.o.           ",
"            o.o.o.o.o#111:*o.ooo*111111111111111111111111111111111111111111111111111111*ooo.o*1111#.o.o.o.o.            ",
"            ..o..o..#11111#o.o.o.#1111111111111111111111111111111111111111111111111111#ooo.o.#:1111#o.o.o.o.            ",
"             o.oo.o#:1:1:#ooo.o.o.o:111111111111111111111111111111111111111111111111:o.oo.o.o.#11:11#o.o.o.             ",
"              .o.o.:1:11#o.o.o.o.ooo#1111111111111111111111111111111111111111111111#o.o..o.o.oo#11:1:o.oo.              ",
"               .o.o:111#o.o.o.o.o.o.oo*11111111111111111111111111111111111111111:*oooo.oo.o.o.o.#:11:.o..               ",
"                o.oo::#o.o.o.o.o.o.o.o.o:11111111111111111111111111111111111111*o.o..o.o.o.o.o.oo#::oo.o                ",
"                 o.oo.o.o.o.o.o.o.o.o.o.oo#:11111111111111111111111111111111:*o.o..oo.o.o.o.o.o..o.oo.o                 ",
"                  o.o..o.o.o.o.o.o.o.o.oo.o.#*:11111111111111111111111111:*#o.o..o.o.o.o.o.o.o.oo.o..o                  ",
"                   o.oo.o.o.o.o.o.o.o.o..o.o.oo#*:11111111111111111111:*#o.o.o.oo.o.o.o.o.o.o.o..o.oo                   ",
"                    o..oo.o.o.o.o.o.o.o.o.o.o.o..o.o#**::111111::**#o.o.o.o.o.o..o.o.o.oo.o.o.o..oo.                    ",
"                     .o..o.o.o.o.o.o.o.o.o.o.o.oo.o.ooo.o.o.o.ooooo.oo.o.o.o.o.oo.o.o.o..o.o.o.oo..                     ",
"                      .oo.o.o.o.o.o.o.o.o.o.o.o..o.o.o.oo..o.oo.oo.oooo.o.o.o.o..o.o.o.oo.o.o.o..o                      ",
"                       ..o.o.o.o.o.o.o.o.o.o.o.oo.o.o.o..oo.o..oo.o.o..o.o.o.o.oo.o.o.o..o.o.o.o.                       ",
"                         o.oo.o.o.o.o.o.o.o.o.o..o.o.o.oo7uspeo..o.oo.o.o.o.o.o..o.o.o.oo.o.o..                         ",
"                          ...o.o.o.o.o.o.o.o.o.oo.o.o.o.1fpqeu.oo.o..o.o.o.o.o.oo.o.o.o..o.o.o                          ",
"                           oo.o.o.o.o.o.o.o.o.o..o.o.o.o8f8oo.o..o.oo.o.o.o.o.o..o.o.o.o.oo.                            ",
"                             ..o.o.o.o.o.o.o.o.oo.o.o.oo*fs5.o.oo.o..o.o.o.o.o.oo.o.o.o.o.o                             ",
"                               .o..o.o.oo.o.o.o.o.o.o.o.o7sfs7o..o.o.o.o.o.o.o.o.o.o.o.oo                               ",
"                                 .o.o.o..o.o.o.o.o.o.o.o.o.8sf*oo.o.o.o.o.o.o.o.o.o.o..                                 ",
"                                   oo..oo.o.o.o.o.o.o.o.o.oo8f8..o.o.o.o.o.o.o.o..ooo                                   ",
"                                     .o..o.o.o.o.o.o.o.o*e57uf5.o.o.o.o.o.o.o.o.o..                                     ",
"                                        o.o..o.oo.o.o.o.*pffd9o.o.o..o.oo.oo.o.o                                        ",
"                                           o..o..o.o.o.o.o*2oo.o.o.oo.o..o..o                                           ",
"                                               o.oo.o.o.o..o.oo.o.o..o..o                                               ",
"                                                    .o.o..o.o....oo.                                                    "
};
